<?xml version="1.0" standalone="no"?>
<!DOCTYPE svg PUBLIC "-//W3C//DTD SVG 20010904//EN"
 "http://www.w3.org/TR/2001/REC-SVG-20010904/DTD/svg10.dtd">
<svg version="1.0" xmlns="http://www.w3.org/2000/svg"
 width="512.000000pt" height="512.000000pt" viewBox="0 0 512.000000 512.000000"
 preserveAspectRatio="xMidYMid meet">

<g transform="translate(0.000000,512.000000) scale(0.100000,-0.100000)"
fill="#000000" stroke="none">
<path d="M2960 1257 c0 -454 -2 -470 -75 -542 -27 -27 -60 -48 -87 -56 -23 -7
-56 -23 -72 -36 -15 -13 -41 -30 -57 -39 -28 -14 -29 -16 -29 -99 l0 -85 -80
0 -80 0 0 83 0 83 -56 37 -57 37 -269 0 -268 0 21 -43 c74 -145 207 -276 356
-351 28 -14 91 -38 140 -52 75 -22 107 -26 213 -26 106 0 138 4 213 26 280 83
470 273 553 553 35 118 37 288 5 408 -52 193 -165 355 -323 463 l-48 33 0
-394z"/>
</g>
</svg>
